<svg xmlns="http://www.w3.org/2000/svg" viewBox="0 0 325.93 407"><defs><style>.cls-1{fill:#5c6bc0;}.cls-2{fill:#3949ab;opacity:0.7;}.cls-3{fill:#42a5f5;}.cls-4{fill:#1565c0;opacity:0.5;}</style></defs><title>Asset 5</title><g id="Layer_2" data-name="Layer 2"><g id="Layer_1-2" data-name="Layer 1"><path class="cls-1" d="M0,114.16H47.15v29.78H48q10.75-18.2,29-26.47a93.88,93.88,0,0,1,39.29-8.27q22.74,0,40.95,8.07a91.75,91.75,0,0,1,31,22.13,94.75,94.75,0,0,1,19.44,33.09,123.94,123.94,0,0,1,6.62,40.95,117.24,117.24,0,0,1-7,40.95,101.91,101.91,0,0,1-19.65,33.09,90.63,90.63,0,0,1-30.4,22.13,93,93,0,0,1-38.88,8.07,96,96,0,0,1-24.82-2.9,85.23,85.23,0,0,1-19-7.44,75.67,75.67,0,0,1-14.06-9.72,70.24,70.24,0,0,1-9.51-10.13H49.63V407H0Zm164.62,99.27a64.66,64.66,0,0,0-3.93-22.33,56.2,56.2,0,0,0-11.58-19,56.68,56.68,0,0,0-42.81-18.2,56.68,56.68,0,0,0-42.81,18.2,56,56,0,0,0-11.58,19,65.44,65.44,0,0,0,0,44.67,55.89,55.89,0,0,0,11.58,19A56.69,56.69,0,0,0,106.3,273a56.69,56.69,0,0,0,42.81-18.2,56.08,56.08,0,0,0,11.58-19A64.63,64.63,0,0,0,164.62,213.43Z"/><path class="cls-2" d="M187.57,287.48a97,97,0,0,0,11.28-15.41,53,53,0,0,1-13.55-4,57.58,57.58,0,0,1-18.4-13.24A55.48,55.48,0,0,1,158,241.9a55.65,55.65,0,0,1-8.89,12.89A56.69,56.69,0,0,1,106.3,273c-1,0-1.93-.1-2.9-.14v43.83a110.68,110.68,0,0,0,14.89,1,94.87,94.87,0,0,0,32.26-5.41V282.91h.83a65.73,65.73,0,0,0,17.88,20A89.17,89.17,0,0,0,187.57,287.48Z"/><path class="cls-3" d="M111.67,0h49.63V139.39h1.24a70.67,70.67,0,0,1,9.51-10.13,76.35,76.35,0,0,1,14.06-9.72,85.72,85.72,0,0,1,19-7.44,96,96,0,0,1,24.82-2.9,93,93,0,0,1,38.88,8.07,90.69,90.69,0,0,1,30.4,22.13,102,102,0,0,1,19.65,33.09,117.25,117.25,0,0,1,7,40.95,123.92,123.92,0,0,1-6.62,40.95,94.68,94.68,0,0,1-19.44,33.09,91.69,91.69,0,0,1-31,22.13q-18.2,8.06-40.95,8.07a93.85,93.85,0,0,1-39.29-8.27q-18.2-8.27-29-26.47h-.83v35.29H111.67ZM276.29,213.43a64.66,64.66,0,0,0-3.93-22.33,56.2,56.2,0,0,0-11.58-19,58.67,58.67,0,0,0-85.62,0,56,56,0,0,0-11.58,19,65.44,65.44,0,0,0,0,44.67,55.89,55.89,0,0,0,11.58,19,58.67,58.67,0,0,0,85.62,0,56.08,56.08,0,0,0,11.58-19A64.63,64.63,0,0,0,276.29,213.43Z"/><path class="cls-4" d="M149.11,184.47a56.16,56.16,0,0,1,11.39,18.58,64.16,64.16,0,0,1,3.08-12,56,56,0,0,1,11.58-19,57.67,57.67,0,0,1,18.41-13.24l.27-.1c-1.78-2.39-3.63-4.72-5.64-6.93A89.42,89.42,0,0,0,180,144a68.37,68.37,0,0,0-7.9,6,70.67,70.67,0,0,0-9.51,10.13h-1.24V131.75c-1.38-.69-2.7-1.44-4.13-2.08q-18.2-8.06-40.95-8.07c-1.53,0-3,0-4.55.11v44.81a55.19,55.19,0,0,1,19,4.71A57.8,57.8,0,0,1,149.11,184.47Z"/><path class="cls-1" d="M111.67,154.12a55.19,55.19,0,0,1,19,4.71,57.8,57.8,0,0,1,18.41,13.24,56.2,56.2,0,0,1,11.58,19c.55,1.51,1,3,1.45,4.57.44-1.53.9-3.06,1.45-4.57a56,56,0,0,1,11.58-19,57.67,57.67,0,0,1,18.41-13.24,50.71,50.71,0,0,1,6.75-2.48,91.62,91.62,0,0,0-12.13-17,89.41,89.41,0,0,0-13.68-12.18c-.84.68-1.67,1.35-2.45,2a70.67,70.67,0,0,0-9.51,10.13h-1.24V119.34c-1.38-.69-2.7-1.44-4.13-2.08q-18.2-8.06-40.95-8.07c-1.53,0-3,0-4.55.11Z"/></g></g></svg>