<svg xmlns="http://www.w3.org/2000/svg" viewBox="0 0 121.61 128.32"><title>CFA logo</title><g id="Layer_2" data-name="Layer 2"><g id="Layer_7" data-name="Layer 7"><rect y="8.26" width="121.61" height="120.06" rx="20.73" fill="#006838"/><rect width="121.61" height="117.81" rx="20.73" fill="#39b54a"/><path d="M63.82,87.68c-16.54,0-28.91-11.53-28.91-28.38,0-17.22,12.75-28.22,29.14-28.22,7.51,0,15.63,2.73,20.11,7.89l-8.8,8.8c-2.43-3.34-6.76-4.93-10.85-4.93-9,0-15.48,7-15.48,16.46,0,9.79,6.3,16.47,15.25,16.47a13.73,13.73,0,0,0,11.38-5.46l9,8.49C80,84.27,72.85,87.68,63.82,87.68Z" fill="#fff"/><rect x="56.76" y="77.63" width="12.33" height="18.48" fill="#fff"/><rect x="56.76" y="21.7" width="12.33" height="19.34" fill="#fff"/></g></g></svg>