<svg id="Layer_1" data-name="Layer 1" xmlns="http://www.w3.org/2000/svg" viewBox="0 0 438.57 253.06"><defs><style>.cls-1{fill:#fff;}.cls-2{fill:#4d4d4d;}.cls-3,.cls-4{fill:none;stroke-linecap:round;stroke-miterlimit:10;}.cls-3{stroke:#3f86f5;stroke-width:15px;}.cls-4{stroke:#4d4d4d;stroke-width:19px;}</style></defs><path class="cls-1" d="M528.13,493.5a63.7,63.7,0,0,1-63.63-63.63V325.13a63.63,63.63,0,0,1,127.26,0V429.87A63.7,63.7,0,0,1,528.13,493.5Z" transform="translate(-455 -252)"/><path class="cls-2" d="M528.13,271a54.19,54.19,0,0,1,54.13,54.13V429.87a54.13,54.13,0,0,1-108.26,0V325.13A54.19,54.19,0,0,1,528.13,271m0-19h0A73.13,73.13,0,0,0,455,325.13V429.87A73.13,73.13,0,0,0,528.13,503h0a73.13,73.13,0,0,0,73.13-73.13V325.13A73.13,73.13,0,0,0,528.13,252Z" transform="translate(-455 -252)"/><path class="cls-1" d="M810.87,493.5a63.7,63.7,0,0,1-63.63-63.63V325.13a63.63,63.63,0,0,1,127.26,0V429.87A63.7,63.7,0,0,1,810.87,493.5Z" transform="translate(-455 -252)"/><path class="cls-2" d="M810.87,271A54.19,54.19,0,0,1,865,325.13V429.87a54.13,54.13,0,0,1-108.26,0V325.13A54.19,54.19,0,0,1,810.87,271m0-19h0a73.13,73.13,0,0,0-73.13,73.13V429.87A73.13,73.13,0,0,0,810.87,503h0A73.13,73.13,0,0,0,884,429.87V325.13A73.13,73.13,0,0,0,810.87,252Z" transform="translate(-455 -252)"/><line class="cls-3" x1="181.5" y1="125.5" x2="252.85" y2="125.5"/><line class="cls-3" x1="175.5" y1="94.5" x2="175.5" y2="156.5"/><line class="cls-3" x1="254" y1="94.5" x2="254" y2="156.5"/><line class="cls-4" x1="406.19" y1="223.08" x2="429.07" y2="243.56"/></svg>