<svg width="240" height="122" viewBox="0 0 240 122" fill="none" xmlns="http://www.w3.org/2000/svg">
<path d="M73 68.4913C73 80.9399 69.6626 90.6489 62.9877 97.6182C56.3129 104.539 47.3715 108 36.1638 108C25.1054 108 16.3135 104.539 9.78813 97.6182C3.26271 90.6489 0 80.9399 0 68.4913V39.6529C0 27.2523 3.26271 17.5434 9.78813 10.526C16.3634 3.50868 25.1552 0 36.1638 0C47.3217 0 56.2381 3.50868 62.913 10.526C69.6377 17.5434 73 27.2523 73 39.6529V68.4913ZM57.9069 39.4366C57.9069 30.3044 56.014 23.3832 52.2282 18.6729C48.4425 13.9146 43.0877 11.5354 36.1638 11.5354C29.3395 11.5354 24.1092 13.9146 20.4729 18.6729C16.8366 23.3832 15.0184 30.3044 15.0184 39.4366V68.4913C15.0184 77.7196 16.8366 84.713 20.4729 89.4713C24.159 94.2296 29.3893 96.6088 36.1638 96.6088C43.1375 96.6088 48.4923 94.2537 52.2282 89.5434C56.014 84.7851 57.9069 77.7677 57.9069 68.4913V39.4366Z" fill="#4A4A4A"/>
<path d="M233.609 68.2568C233.609 74.4358 232.742 79.9682 231.008 84.8539C229.273 89.7397 226.821 93.859 223.65 97.212L240 114.025L230.19 122L213.394 104.397C210.917 105.499 208.291 106.313 205.516 106.84C202.791 107.367 199.943 107.63 196.97 107.63C185.971 107.63 177.226 104.181 170.736 97.2839C164.245 90.3384 161 80.6627 161 68.2568V39.5171C161 27.159 164.245 17.4833 170.736 10.49C177.276 3.49666 186.02 0 196.97 0C208.068 0 216.937 3.49666 223.576 10.49C230.264 17.4833 233.609 27.159 233.609 39.5171V68.2568ZM218.596 39.3015C218.596 30.2006 216.714 23.3031 212.948 18.609C209.183 13.8669 203.857 11.4959 196.97 11.4959C190.182 11.4959 184.98 13.8669 181.363 18.609C177.746 23.3031 175.938 30.2006 175.938 39.3015V68.2568C175.938 77.4535 177.746 84.4228 181.363 89.1649C185.029 93.9069 190.232 96.278 196.97 96.278C203.906 96.278 209.232 93.9309 212.948 89.2367C216.714 84.4947 218.596 77.5014 218.596 68.2568V39.3015Z" fill="#4A4A4A"/>
<path fill-rule="evenodd" clip-rule="evenodd" d="M87 32.5C87 29.4624 89.4624 27 92.5 27C95.5376 27 98 29.4624 98 32.5V52H135V32.5C135 29.4624 137.462 27 140.5 27C143.538 27 146 29.4624 146 32.5V79.5C146 82.5376 143.538 85 140.5 85C137.462 85 135 82.5376 135 79.5V61H98V79.5C98 82.5376 95.5376 85 92.5 85C89.4624 85 87 82.5376 87 79.5V32.5Z" fill="#4788F2"/>
</svg>
