<svg id="Layer_1" data-name="Layer 1" xmlns="http://www.w3.org/2000/svg" viewBox="0 0 1448.07 1234.4"><defs><style>.cls-1{fill:#4499d4;}.cls-2{fill:#fff;}.cls-3{fill:#e8ecf7;}.cls-4{fill:#fdb920;}.cls-5{fill:#198d93;}.cls-6{fill:#f2759b;}.cls-7{fill:#ffd670;}.cls-8{fill:#fac5c8;}.cls-9{fill:#1b2a55;}.cls-10{fill:#22a2b7;}.cls-11{fill:#60bf86;}.cls-12{fill:#1a97a3;}.cls-13{fill:#f37c83;}.cls-14{fill:#e55d69;}.cls-15{fill:#72c595;}.cls-16{fill:#2caf61;}</style></defs><title>design3export</title><path id="Rectangle_8-2" data-name="Rectangle 8-2" class="cls-1" d="M1367.53,589.68H529c-35,0-63.35-21-63.35-46.81V115.51c0-25.85,28.36-46.8,63.35-46.8h838.53c35,0,63.35,21,63.35,46.8V542.87C1430.88,568.72,1402.52,589.68,1367.53,589.68Z" transform="translate(-206.31 -68.71)"/><g id="Group_50" data-name="Group 50"><g id="Group_20" data-name="Group 20"><g id="Group_46" data-name="Group 46"><path id="Path_53-3" data-name="Path 53-3" class="cls-2" d="M593,448.65a49.7,49.7,0,0,0,25.84,5.44l-4.07,26.68q-33.28-.37-47.55-12a43.12,43.12,0,0,1-14-36l.73-63.46a36.44,36.44,0,0,0-8.44-27.55A42.83,42.83,0,0,0,516,333.16l.32-28.13A42.83,42.83,0,0,0,546,297.14a36.4,36.4,0,0,0,9.06-27.35l.72-63.8a43.11,43.11,0,0,1,14.82-35.69q14.52-11.33,47.81-10.94l3.47,26.76A49.78,49.78,0,0,0,596,191a17.76,17.76,0,0,0-8.25,16l-.78,68.27q-.39,35-38.58,44.15,38,9.34,37.57,44.69l-.77,68.26A17.73,17.73,0,0,0,593,448.65Z" transform="translate(-206.31 -68.71)"/></g><g id="Group_47" data-name="Group 47"><path id="Path_54-3" data-name="Path 54-3" class="cls-2" d="M802.14,300.07a42.84,42.84,0,0,0,29.59,8.57l-.32,28.13a42.84,42.84,0,0,0-29.77,7.89A36.4,36.4,0,0,0,792.58,372l-.72,63.46A43.13,43.13,0,0,1,777,471.15q-14.53,11.33-47.81,11l-3.48-26.77a50.12,50.12,0,0,0,25.78-4.68,17.8,17.8,0,0,0,8.08-16.2l.78-68.33q.39-35.33,38.58-43.82-38-10-37.57-45l.77-68.26a17.81,17.81,0,0,0-7.71-16.22,48.82,48.82,0,0,0-25.66-5.44l4.08-26.68q33.27.39,47.55,12a43.08,43.08,0,0,1,14,36l-.72,63.8A36.41,36.41,0,0,0,802.14,300.07Z" transform="translate(-206.31 -68.71)"/></g><g id="Group_48" data-name="Group 48"><path id="Path_55-3" data-name="Path 55-3" class="cls-2" d="M974.81,179.18a43.94,43.94,0,0,1-.67,62.12l0,0A51.31,51.31,0,0,1,939,252.18l-30.29-.34-.58,51.33-22-.25,1.54-136.07,52.37.6A51.06,51.06,0,0,1,974.81,179.18Zm-17.56,48.57a21.73,21.73,0,0,0,7.2-17.55q.27-23.7-28.17-24l-26.81-.31-.54,47.21,26.81.31a33,33,0,0,0,21.51-5.63Z" transform="translate(-206.31 -68.71)"/><path id="Path_56-3" data-name="Path 56-3" class="cls-2" d="M1099.11,262l-75.45-.86a32.91,32.91,0,0,0,9.45,20.83,29,29,0,0,0,20.13,7.36,35.22,35.22,0,0,0,16.84-3.42,18.87,18.87,0,0,0,9.31-10.31l18.26,7.84q-11.85,23.79-44.6,23.42a50.34,50.34,0,0,1-37.87-14.69,54.35,54.35,0,0,1-13.26-39.53,55.63,55.63,0,0,1,13.64-39.33,48.31,48.31,0,0,1,37.27-13.69,45.3,45.3,0,0,1,35.1,14.21,52.43,52.43,0,0,1,12.16,36.84A75.45,75.45,0,0,1,1099.11,262ZM1033.26,224a33.67,33.67,0,0,0-9.41,20.31l55.67.63a33.94,33.94,0,0,0-8.53-20.3,24.81,24.81,0,0,0-18.37-7.43,26.75,26.75,0,0,0-19.4,6.79Z" transform="translate(-206.31 -68.71)"/><path id="Path_57-3" data-name="Path 57-3" class="cls-2" d="M1208.86,211.3a36.58,36.58,0,0,1,10.49,28.57l-.76,66.8-22-.25.68-59.78q.3-27.21-21.76-27.46a27.49,27.49,0,0,0-19.88,7.71,32.5,32.5,0,0,0-8.52,24.34l-.62,54.68-22.06-.25,1.17-103.09,19.6.23.84,17.12a33.48,33.48,0,0,1,14.41-14.27,43.76,43.76,0,0,1,20.67-4.5A39.76,39.76,0,0,1,1208.86,211.3Z" transform="translate(-206.31 -68.71)"/><path id="Path_58-2" data-name="Path 58-2" class="cls-2" d="M1333.79,212.72a36.55,36.55,0,0,1,10.5,28.57l-.76,66.8-22-.25.68-59.78q.3-27.21-21.76-27.46a27.49,27.49,0,0,0-19.88,7.71,32.55,32.55,0,0,0-8.52,24.34l-.62,54.68-22.06-.25L1250.49,204l19.6.23.83,17.12a33.56,33.56,0,0,1,14.42-14.27,43.88,43.88,0,0,1,20.67-4.5A39.74,39.74,0,0,1,1333.79,212.72Z" transform="translate(-206.31 -68.71)"/></g><g id="Group_49" data-name="Group 49"><path id="Path_59-2" data-name="Path 59-2" class="cls-2" d="M982.23,466.34l-.22,19-97.08-1.1,1.55-136.06,22.06.25-1.33,117.09Z" transform="translate(-206.31 -68.71)"/><path id="Path_60-2" data-name="Path 60-2" class="cls-2" d="M1102.17,471.4l-1.62,14.82a31,31,0,0,1-12.81,2.33,25.07,25.07,0,0,1-14.07-3.66,17.36,17.36,0,0,1-6.77-11.83,31,31,0,0,1-14.15,11.08,51.91,51.91,0,0,1-20.86,3.78,39.32,39.32,0,0,1-24.25-7.29,23.57,23.57,0,0,1-9-20.1,25.64,25.64,0,0,1,10.33-20.37,64.74,64.74,0,0,1,30.24-11.52l26.23-4.23.07-5.57a20,20,0,0,0-5.4-15,21.12,21.12,0,0,0-15.4-5.63,25.41,25.41,0,0,0-26.81,18.25l-17-9.27a34.24,34.24,0,0,1,15.37-19.42,51.71,51.71,0,0,1,28.22-6.89,49.83,49.83,0,0,1,31.63,9.63,32.56,32.56,0,0,1,11.44,27.35l-.53,46.59a8.21,8.21,0,0,0,1.72,5.79,7.84,7.84,0,0,0,5.86,1.92A30.44,30.44,0,0,0,1102.17,471.4Zm-45.71-5.26a16.24,16.24,0,0,0,8.61-14.16l.14-12.36-22.52,4.28a41,41,0,0,0-15.94,5.59,11.57,11.57,0,0,0-5.27,9.84,10.22,10.22,0,0,0,3.92,8.81,18.86,18.86,0,0,0,11.4,3.12,35.84,35.84,0,0,0,19.66-5.08Z" transform="translate(-206.31 -68.71)"/><path id="Path_61-2" data-name="Path 61-2" class="cls-2" d="M1212.7,397.13a59.17,59.17,0,0,1,11.72,39.62,58.33,58.33,0,0,1-12.62,39.13,41.75,41.75,0,0,1-33.55,13.74,39.24,39.24,0,0,1-21.31-6A35.8,35.8,0,0,1,1143.41,468l-1.25,19.17-19.39-.22,1.7-149.46,22.07.25-.72,62.88a34.26,34.26,0,0,1,13.66-13.45,39.75,39.75,0,0,1,20-4.72A41.5,41.5,0,0,1,1212.7,397.13Zm-18.17,65.47a41.56,41.56,0,0,0,7.82-26.31,41,41,0,0,0-7.22-26.37,25.34,25.34,0,0,0-20.82-9.62,25.62,25.62,0,0,0-20.21,8.23,37.05,37.05,0,0,0-8.61,23.19l-.09,7.83a37.3,37.3,0,0,0,8.08,23.59,25.58,25.58,0,0,0,20,8.68,25.23,25.23,0,0,0,21-9.22Z" transform="translate(-206.31 -68.71)"/><path id="Path_62-2" data-name="Path 62-2" class="cls-2" d="M1262.11,485.21A38.14,38.14,0,0,1,1244,468.72l15-12.61a25.47,25.47,0,0,0,12,13.12,43.84,43.84,0,0,0,19.75,4.35,32.32,32.32,0,0,0,16.32-3.22,10.16,10.16,0,0,0,5.88-8.9,8.92,8.92,0,0,0-5.25-8,70.78,70.78,0,0,0-18.49-5.87,78.42,78.42,0,0,1-32-11.95,24.37,24.37,0,0,1-9-20.52,26.89,26.89,0,0,1,5.34-15.71,35.75,35.75,0,0,1,15.08-11.57,55.76,55.76,0,0,1,23.21-4.2,57,57,0,0,1,27.35,6,37.38,37.38,0,0,1,15.67,17.81l-15.8,11.4a27.33,27.33,0,0,0-10.26-13.42,31.37,31.37,0,0,0-17-4.41,28.36,28.36,0,0,0-15.4,3.64,10.68,10.68,0,0,0-6.18,8.69,10,10,0,0,0,5.36,9,65.5,65.5,0,0,0,19.83,6.2A71.62,71.62,0,0,1,1326.22,440a24.33,24.33,0,0,1,8.85,20.3,26.63,26.63,0,0,1-12.22,22.34,55.28,55.28,0,0,1-33,8.28A67.63,67.63,0,0,1,1262.11,485.21Z" transform="translate(-206.31 -68.71)"/></g><rect id="Rectangle_21-3" data-name="Rectangle 21-3" class="cls-2" x="616.56" y="318.15" width="112.87" height="121.55" rx="26.72" ry="26.72" transform="translate(80.15 978.86) rotate(-89.35)"/><circle id="Ellipse_45" data-name="Ellipse 45" class="cls-1" cx="492.59" cy="288.88" r="14.91"/><circle id="Ellipse_46" data-name="Ellipse 46" class="cls-2" cx="491.81" cy="175.13" r="14.91"/><circle id="Ellipse_47" data-name="Ellipse 47" class="cls-2" cx="468.7" cy="118.17" r="14.91"/><circle id="Ellipse_48" data-name="Ellipse 48" class="cls-2" cx="443.91" cy="215" r="14.91"/></g></g><path class="cls-3" d="M422.86,695.39c-2.22-1.25-17,19.51-17,19.51L404,710.33c-2.6-10-8.52-3.73-8.52-3.73s6.29,15.36,7,20.34a71.35,71.35,0,0,1,.46,8.82c.54-.85,1-1.35,1.4-1.35l12.4,7.78c5.3-6.58,12.7-16.67,15-24.38C435.45,705.35,425.08,696.63,422.86,695.39Z" transform="translate(-206.31 -68.71)"/><path class="cls-4" d="M403,735.76c-5.76,9.1-19.59,62.27-19.59,62.27-12.21-24.91-55.49-70.23-55.49-70.23l.38,1.92s21.67,27.11,25.12,73.74c.42,5.73-11.47,14.37-11.21,20.22,11.76,13,41.65,29.68,42.56,30.31,33.35,22.79,32.21-111.69,32.21-111.69l-.18-.11-12.4-7.78C404,734.41,403.49,734.91,403,735.76Z" transform="translate(-206.31 -68.71)"/><path class="cls-5" d="M293.53,1250.67l1.57,5s10.43,21.44,8.11,24.33-26.07,2.32-29-1.73,3.47-17.38,3.47-17.38l1.24-10.2C282.91,1251,289.25,1250.83,293.53,1250.67Z" transform="translate(-206.31 -68.71)"/><path class="cls-6" d="M300.79,843.9c-2.32.83-4,1.09-4.53.52A16.67,16.67,0,0,0,300.79,843.9Z" transform="translate(-206.31 -68.71)"/><path class="cls-6" d="M232.94,868.54c-2.11-19.53-4.07-42.83-5.66-63.92,4,7.14,8.51,15,13.13,22.93C237.77,842.76,235,858.16,232.94,868.54Z" transform="translate(-206.31 -68.71)"/><path class="cls-7" d="M360.18,885.46c-.08-.31-.32-2.2-.69-5.23a18.79,18.79,0,0,0,.55-6c-.12-1.81-10.22-57.84-7.64-56.69-.14-1.35-.29-2.67-.43-3.95-.58,1.53-1.05,2.62-1.05,2.62s-3.75-16.25-6.25-24.37c-2.06-6.71-16.89-49.18-22-64.83-.5,7.32-4.29,20.15-5.92,21.78-1.82,1.83-9.14,3.65-7.31-1.37-3.66,5.48-10.06.45-16-2.29s-23.11-12.46-26-13.55c-22.36-8.32-31.81,8.68-32.36,16.69,8.61,15.41,13,68.16,15.61,109.44-3.22,13-8.42,30-14.29,37.47.28,1.74.56,3.41.84,4.92.92,4.92,3,12.59,5.3,20.68,3.4,11.76,7.39,24.34,9.4,30.6,4.84-6.87,56.86-6.06,63-6.94s44.43-9.76,49.14-12.66C362.9,916.55,360.61,887.17,360.18,885.46Z" transform="translate(-206.31 -68.71)"/><path class="cls-8" d="M257.53,650.76c.06-.35.14-.7.21-1a0,0,0,0,1,0,0C257.67,650.08,257.59,650.42,257.53,650.76Z" transform="translate(-206.31 -68.71)"/><path class="cls-8" d="M257.05,657.11c0-1,0-2.08.08-3.11,0,.16.08.33.11.49C257.17,655.31,257.11,656.19,257.05,657.11Z" transform="translate(-206.31 -68.71)"/><path class="cls-9" d="M326.89,656c0-.09,0-.17,0-.25a34.62,34.62,0,0,0-3.44-14.09l-1.68,2.48-1.33.32c-3,2.37-8.08,3.55-15.75,3.75a61.51,61.51,0,0,1-15-1.71,22.58,22.58,0,0,0-11,14.58c0,.35-.52,5.81-.47,7.67a17.48,17.48,0,0,1-1.29,7.14,15.19,15.19,0,0,0-1.7-.76c-2.25-.81-3.08-4.38-3.4-6.7a16.58,16.58,0,0,0,.57-4.81c-.14-5.4-2.63-9.71-5.57-9.64s-5.2,4.51-5.07,9.91c.13,4.75,2.07,8.66,4.54,9.48h0l3.56,4.13,1,1.1.15,9.88a2.33,2.33,0,0,1-2.81.53c-3-1.74-7.81-11.32-7.81-11.32a27.69,27.69,0,0,1-2.94-8.41,53.56,53.56,0,0,1-.36-12.12c.06-.92.12-1.8.19-2.62,0-.16-.08-.33-.11-.49h0v0c0-.18.05-.34.06-.52.08-.91.19-1.8.34-2.69.06-.34.14-.68.2-1a0,0,0,0,0,0,0c0-.2,0-.35,0-.35h0c.12-.58.26-1.16.41-1.73.11-.4.22-.8.34-1.2.19-.63.41-1.26.63-1.87.14-.38.28-.76.43-1.13.27-.68.58-1.34.9-2,.14-.28.25-.57.39-.84.47-.9,1-1.77,1.51-2.62.18-.29.38-.56.57-.84.39-.57.78-1.14,1.2-1.69.25-.34.52-.66.79-1s.78-.93,1.19-1.38.6-.65.91-1,.87-.85,1.32-1.26.62-.58,1-.86c.56-.48,1.15-.93,1.74-1.37.38-.29.76-.57,1.16-.84.65-.45,1.31-.88,2-1.28.38-.23.78-.44,1.18-.65s.71-.41,1.09-.59a22.76,22.76,0,0,1,2.66-1.58l.09-.16.7-.25a33,33,0,0,1,7.31-2.46c6.8-2.14,16.15-4.69,20.79-4.14,7.77.91,27,7.77,27,7.77L325,639.37c1.73,5.39,3.91,13.68,2.78,18.5-.43,1.85-.76,3.25-1,4.3.15-2.17.21-4.14.16-5.81C326.91,656.21,326.9,656.09,326.89,656Z" transform="translate(-206.31 -68.71)"/><path class="cls-3" d="M314.11,735.91a11.79,11.79,0,0,1-.56,3.27c-1,3-1.56,4-2,4.56a5.24,5.24,0,0,1-1.1.14l-4.33-2.34c-4.51-5.37-12.93-13-21.8-17.45-8.31-4.15-11.07-8-12-10.33l-1.22-23-.11.11,0-2.4-.15-9.88-1-1.1-3.56-4.13h0c-2.47-.82-4.41-4.73-4.54-9.48-.13-5.4,2.13-9.83,5.07-9.91s5.43,4.24,5.57,9.64a16.58,16.58,0,0,1-.57,4.81c.32,2.32,1.15,5.89,3.4,6.7a15.19,15.19,0,0,1,1.7.76,17.48,17.48,0,0,0,1.29-7.14c-.05-1.86.44-7.32.47-7.67a22.58,22.58,0,0,1,11-14.58,61.51,61.51,0,0,0,15,1.71c7.67-.2,12.77-1.38,15.75-3.75l1.33-.32,1.68-2.48a34.62,34.62,0,0,1,3.44,14.09c0,.08,0,.16,0,.25s0,.26,0,.41c0,1.67,0,3.64-.16,5.81-1,14-1.56,35.72-10.06,42.33-1.3,1-7.08,1.51-7.14,3-.26,6.62.25,7,.25,7a29.79,29.79,0,0,0,.93,7.68C311.78,726.9,313.42,731.9,314.11,735.91Z" transform="translate(-206.31 -68.71)"/><path class="cls-10" d="M288.31,965c6.59-.58,30.68-2.56,49.41-5.09l-15.39,72.71-.09.72-24,212-.2,5.14s-1.85.1-4.47.19c-4.28.16-10.62.31-14.57,0-2-.14-3.41-.39-3.55-.81-.58-1.74-13.91-97.89-12.75-124,1-22.07-4.83-127.25-6.63-159C262.89,968.72,278.63,965.85,288.31,965Z" transform="translate(-206.31 -68.71)"/><path class="cls-11" d="M252.79,848.38c-2.64,12.72-9,37.32-16.42,46.79a10.62,10.62,0,0,1-4.18,3.51c-11.25,4.38-11.25-2.5-15-7.5s10-8.75,12.5-10c.57-.29,1.75-5.18,3.25-12.65,2.1-10.38,4.83-25.78,7.47-41C244.49,834.58,248.68,841.66,252.79,848.38Z" transform="translate(-206.31 -68.71)"/><path class="cls-11" d="M352.52,812.05c-.19.54-.38,1.06-.55,1.53-.58,1.53-1.05,2.62-1.05,2.62s-3.75-16.25-6.25-24.37c-2.06-6.71-16.89-49.18-22-64.83a18.57,18.57,0,0,0,0-2.45,8.74,8.74,0,0,0-1.47-3.9c1.32-.94,6.83.5,12.82,4.31,0,0,.68,1.63,1.79,4.52C340.26,741,351.55,773,354.05,805,354.18,806.71,353.36,809.62,352.52,812.05Z" transform="translate(-206.31 -68.71)"/><path class="cls-4" d="M310.43,743.88l-4.33-2.34c-4.51-5.37-12.93-13-21.8-17.45-8.31-4.15-11.11-8-11.44-10.53-.22-1.66-.41-2.95-.41-2.95l-.95-9.83s-17.37-11-27.43,11c-.27.58-.44,1.09-.67,1.65C235,733.7,250.94,735,250.94,735a3.07,3.07,0,0,1,.1-.47c.44-1.75,3-7.61,16.34-1.71,4,1.75,20.12,9.6,26.06,12.34s12.34,7.77,16,2.29c1-2.84,1.48-2.91,2.09-3.67A5.24,5.24,0,0,1,310.43,743.88Z" transform="translate(-206.31 -68.71)"/><path class="cls-4" d="M322.7,724.55a8.74,8.74,0,0,0-1.47-3.9c-3.18-5-11.76-9.69-11.76-9.69l-.32,3.46,1.59,7.77h0c1,4.71,2.69,9.71,3.38,13.72a11.79,11.79,0,0,1-.56,3.27c-1,3-1.56,4-2,4.56-.61.76-1.06.83-2.09,3.67-1.83,5,5.49,3.2,7.31,1.37,1.63-1.63,5.42-14.46,5.92-21.78A18.57,18.57,0,0,0,322.7,724.55Z" transform="translate(-206.31 -68.71)"/><path class="cls-4" d="M314.93,944.43c6.29-.9,44.43-9.76,49.14-12.66a1.76,1.76,0,0,0,.23-.14c3.65-2.74,7.31,8.23,7.31,12.8,0,3.32-.27,5.91-5.63,8.66a52.14,52.14,0,0,1-8.54,3.23c-4.21,1.26-11.44,2.48-19.72,3.6-18.73,2.53-42.82,4.51-49.41,5.09-9.68.84-25.42,3.71-32.28,1.91a8.41,8.41,0,0,1-1.59-.57c-3.28-1.68-3.55-8.79-2.91-14.12a1.93,1.93,0,0,1,.38-.86C256.75,944.5,308.77,945.31,314.93,944.43Z" transform="translate(-206.31 -68.71)"/><path class="cls-3" d="M299.42,849.71l-.3.11,5.12,16.82c2.26-.27,4.84-.6,7.75-1,1.8-.25,3.69-.53,5.76-.84,25.32-3.83,17.93-14.36,17.93-20.42s-25-2.87-25-2.87,5.69-12.12,3.7-13.08c-.93-.45-3.9,4-6.8,8.94-3.33,5.62-6.58,11.8-6.58,11.8Z" transform="translate(-206.31 -68.71)"/><path class="cls-4" d="M302.78,872.07c1.56-1.36,2.45-2.17,2.45-2.17l-1-3.26-5.12-16.82-1.86-6.09-45.34,19c-4.34-47.16-6.39-112.49-12.76-119.62a1.39,1.39,0,0,0-2.08-.29c-56.34,42.76-21,134.55-5.67,157.52,2.49,3.73,6.14,5.42,10.47,5.68C261,907.18,293.63,880,302.78,872.07Z" transform="translate(-206.31 -68.71)"/><polygon class="cls-3" points="221.45 1183.9 221.45 1200.32 237.28 1192.02 231.61 1180.68 221.45 1183.9"/><path class="cls-12" d="M366,953.09a52.14,52.14,0,0,1-8.54,3.23c-4.21,1.26-11.44,2.48-19.72,3.6l-15.39,72.71-.09.72,99.68,221,5.83-1.78,10.17-3.22a126.34,126.34,0,0,0,12-4.34Z" transform="translate(-206.31 -68.71)"/><path class="cls-5" d="M486.26,1259.75c-1.74-8.11-44.6-2.9-44.6-2.9s-4,3.2-7.83,4.05a8.25,8.25,0,0,1-6.08-.66V1269s19.7,5.79,39.39,7S488,1267.86,486.26,1259.75Z" transform="translate(-206.31 -68.71)"/><polygon class="cls-3" points="1081.32 1136.08 1104.68 1149.5 1095.1 1167.02 1067.49 1148.43 1081.32 1136.08"/><path class="cls-3" d="M1197.72,932.43s20.27,29.76,20.21,84.1-12.28,67.06,20.56,105.83c42,49.55,46.42,72.43,64.78,90,7.69,7.36-14.37,15.17-14.37,15.17s-108.48-87-115.94-105.43-34.08-105.65-34.08-105.65l23.57-74.83Z" transform="translate(-206.31 -68.71)"/><path class="cls-5" d="M1301.41,1235.73s-20.22,29.88,0,38.15l22.36-50.51-12.74-5.16Z" transform="translate(-206.31 -68.71)"/><polygon class="cls-3" points="889.84 1177.07 890.88 1209.04 904.68 1215.24 905.78 1178.12 889.84 1177.07"/><path class="cls-3" d="M1097.52,930.27s-27.65,28.84-32,105.14,31.73,224.06,31.73,224.06l15.17-2.4s9.32-127.78,5.11-159.75c0,0,49-86.56,56.42-111.3s-2.08-50.52-2.08-50.52Z" transform="translate(-206.31 -68.71)"/><path class="cls-5" d="M1059.35,1293.17s-2.11-19.59,40.39-15.42l12.75,2,0,15.56Z" transform="translate(-206.31 -68.71)"/><path class="cls-3" d="M1128.84,702.3s-17.47-40,21.68-50Z" transform="translate(-206.31 -68.71)"/><path class="cls-3" d="M1240.94,887.32s14.56,85.21,21.77,85.22,25,28.17,31.21,29.18,12.39-24,4.15-29-26.77-11-26.77-11Z" transform="translate(-206.31 -68.71)"/><path class="cls-3" d="M1063,701.14s-28.63-16.83-28.62-27.83-4.26-111-.14-113-5.14-15,3.11-19,17.52-8,21.65-20,9.27-1,4.1,13,5.13,24-11.36,33c0,0-28.93,94.92-12.47,112.93Z" transform="translate(-206.31 -68.71)"/><path class="cls-13" d="M1025.87,566.26c1-3,25.41,8.25,25.41,8.25s.07,74.35,12,96.21c9.6,17.5,36.38,46.2,68.57,62.56,0,0,86.5,28.08,98.83,60.07s38.89,164.83,38.89,164.83l-14.13,9.58s-16.53-70.44-28.72-87.67c-9.57-13.54-25.54-30.11-25.54-30.11s.52,79.28,3.61,86.28-89.62,5.91-117.42-6.11c0,0,18.23-80.06,19.3-121,0,0-77.57-87-86.72-130.64C1013.76,648.73,1025.87,566.26,1025.87,566.26Z" transform="translate(-206.31 -68.71)"/><path class="cls-9" d="M1166,637.36c9.27-2,60.33,4.49,50.39,79-4.3,32.3-29.75,62.42-66.44,36.35-40.52-28.8-19-41.44-18-70.42S1166,637.36,1166,637.36Z" transform="translate(-206.31 -68.71)"/><path class="cls-14" d="M1106.69,809.83c14.13-24.57,25.62-54.74,17.09-78a8.36,8.36,0,0,1-.53-3.37c-28.27-16.74-51.19-41.85-59.92-57.76-12-21.86-12-96.21-12-96.21s-24.38-11.24-25.41-8.25c0,0-12.11,82.47-5.87,112.21,9.15,43.63,86.72,130.64,86.72,130.64C1106.72,809.35,1106.7,809.6,1106.69,809.83Z" transform="translate(-206.31 -68.71)"/><path class="cls-14" d="M1230.73,793.35c-3.86-10-15-19.63-28.42-28.13-3.54,19.26-4.36,39.11-3.63,58.62a86,86,0,0,0,6.26,30.09c5.29,5.72,15.12,16.67,21.83,26.16,12.19,17.23,28.72,87.67,28.72,87.67l14.13-9.58S1243.06,825.35,1230.73,793.35Z" transform="translate(-206.31 -68.71)"/><path class="cls-9" d="M1196.13,679.32c0-6.63-8-23.22,8-29.84s20.52-23.19,30.76-8.81,34.15,28.77,29.58,37.61-3.44,27.63-11.42,30.94-20.51,6.61-31.9,3.28-13.68,9.94-19.36-1.12S1196.13,679.32,1196.13,679.32Z" transform="translate(-206.31 -68.71)"/><path class="cls-7" d="M1202.18,653.71s-7.86,14.53-2.17,29.07a64.66,64.66,0,0,0,16.39,23.55s-16.42,4.83-25.66-20.1S1202.18,653.71,1202.18,653.71Z" transform="translate(-206.31 -68.71)"/><path class="cls-7" d="M1097.52,930.27s-27.65,28.84-32,105.14,20.55,185.73,20.55,185.73l149.31-112.58s-10.15-8-14.37-39.92c0,0,3.78-54.18.8-79.84-4-34.34-19.16-53.5-19.16-53.5Z" transform="translate(-206.31 -68.71)"/><polygon class="cls-3" points="404.19 1164.48 406.73 1191.95 425.26 1190.32 419.96 1156.72 404.19 1164.48"/><path class="cls-11" d="M671.74,890.41s-18.88,30.49-18.83,86.17-7.74,107.14-24.85,155.66c-24.86,70.47-33.55,103.8-29.64,106.23,6.51,4,36.33,0,36.33,0s66.75-127.77,73.7-146.69S740.2,983.54,740.2,983.54l-22-76.67Z" transform="translate(-206.31 -68.71)"/><path class="cls-5" d="M628.9,1252.85s38.87-8.19,37.83,18.56l-60.3.55.71-16.87Z" transform="translate(-206.31 -68.71)"/><polygon class="cls-3" points="573.68 1168.08 572.72 1200.84 559.86 1207.19 558.84 1169.16 573.68 1168.08"/><path class="cls-15" d="M778.71,895.23s22.18,62.08,26.2,140.25-17,209.75-17,209.75l-31.67,0s-4-113.93-.08-146.69c0,0-36.07-66.15-43-91.5s-21-108.33-21-108.33Z" transform="translate(-206.31 -68.71)"/><path class="cls-5" d="M829.25,1280.34s2.69-27.58-51.69-21.72l-16.31,2.8,0,21.9Z" transform="translate(-206.31 -68.71)"/><path class="cls-3" d="M738.64,655.08s16.27-37.25-20.19-46.53l-41.4,25,5.36,82.53,47.69-22.51,1.07-27.33Z" transform="translate(-206.31 -68.71)"/><path class="cls-3" d="M639.61,825.24S606.14,1001.3,603.36,986c-4.68-25.74-12,11.23-17.72,12.17s-11.54-22.33-3.87-27,20.9-24.79,20.9-24.79Z" transform="translate(-206.31 -68.71)"/><path class="cls-3" d="M840.3,637.73S867,622.05,867,611.82s8.47-95.42,4.63-97.28,1.79-23.08-5.89-26.79-17.82-6.33-21.67-17.49-8.63-.92-3.82,12.1-4.78,22.35,10.58,30.71c0,0,27,88.41,11.61,105.18Z" transform="translate(-206.31 -68.71)"/><path class="cls-10" d="M874.86,512.12c-1-2.79-23.67,7.68-23.67,7.68S851.13,589,840,609.4c-8.94,16.3-68.84,57.15-98.82,72.39,0,0-33.8-.68-62.5,13.36-2.36,1.15-2.12,12.88-4.43,14.09-18.41,9.64-34.55,20.88-38.89,32.13-11.48,29.8-39.61,212-39.61,212l25.71,13.2,41.7-184.17s.53,114.42-2.34,120.94,107.08,25,133,13.85c0,0-7.32-138.2-8.31-176.37,0,0,86.35-83.55,94.87-124.19C886.14,588.92,874.86,512.12,874.86,512.12Z" transform="translate(-206.31 -68.71)"/><path class="cls-9" d="M716.7,676.39c-4.72,3.68-28.4,9.11-34.83,1.61s-26.26-28.41-25.19-33.77,2.15-39.12,18.22-47.69a99.79,99.79,0,0,1,17.66-7.71c.82-.27,7.49-2.54,8.42-2.8,13.36-3.67,26.08-4,28.59,5.68,4.28,16.62,9.11,20.37.53,22.51s-10.72,6.43-7.5,13.4,2.14,9.11,2.14,9.11-6.43-10.18-9.64-1.61,2.14,20.37,9.11,14.47C724.21,649.59,721.53,672.64,716.7,676.39Z" transform="translate(-206.31 -68.71)"/><polygon class="cls-3" points="1326.81 1182.12 1324.64 1211 1310.2 1209.56 1308.76 1179.96 1326.81 1182.12"/><polygon class="cls-3" points="1414.53 1164.53 1425.15 1191.47 1411.53 1196.46 1397.34 1170.44 1414.53 1164.53"/><path class="cls-5" d="M1537.45,1271.76l-23.83,3.61s-23.82,15.89-33.21,16.61-18.77,9.38-9.38,10.83,69.3-2.89,69.3-2.89Z" transform="translate(-206.31 -68.71)"/><path class="cls-16" d="M1569.53,1005.91s-36.71,107-33.1,143.12,3.9,104,3.9,104l-33.93-.72s-13-114.06-13-135.72S1524,917.32,1524,917.32Z" transform="translate(-206.31 -68.71)"/><path class="cls-5" d="M1633.53,1255.88l-24.54,9.39s-1.44,17.32-10.83,19.49-23.82,9.38-22.38,15.16,43.32-2.89,43.32-2.89l27.43-21.66Z" transform="translate(-206.31 -68.71)"/><path class="cls-15" d="M1601.28,919.86s12.59,11.4,13.39,27.89c2,41.73-6,116.6-1.86,125.91,5.78,13,22.17,167.06,22.17,167.06l-32.49,7.94s-51-160.59-56.07-196.69-24.36-132-24.36-132Z" transform="translate(-206.31 -68.71)"/><path class="cls-3" d="M1501.66,661.41s-9.39,56.31,26.71,56.31l-1.45,39,33.21-14.44L1558,656.35l-44-1.44Z" transform="translate(-206.31 -68.71)"/><path class="cls-9" d="M1529.94,663.54s-41.72,2-42.44-5.95-1-40.22,35.81-28,50.54,12.28,46.93,29.6-10.11,38.26-10.11,38.26l-7.22-2.88-4.33-18s10.81-5,4.33-14.44c-11.86-17.23-12.65,24-12.65,24Z" transform="translate(-206.31 -68.71)"/><path class="cls-7" d="M1560.85,723.49l-36.09,15.16s-15.22,25.38-15.84,48.64c-.55,21,7,38.44,9.12,55.53,5,40.95,15.34,33.82,6.1,60.39-8.64,24.84-16.2,33.48-16.2,33.48l104.48-10.32-16.88-45-2.81-75.94Z" transform="translate(-206.31 -68.71)"/><path class="cls-4" d="M1549.46,797.18c13.76-6.65,29.23-10.61,42.12-18.78-.73-8-1.61-13.8-2.57-15.92-3.61-7.94-18-26.71-25.27-31.05,0,0-35.07-3-19.91,47.53C1545.77,785.45,1547.68,791.51,1549.46,797.18Z" transform="translate(-206.31 -68.71)"/><path class="cls-9" d="M1530.36,653.76s54.49-5.18,18.16,32.87,16.44,75.25,25.09,84.77-6.06,47.57,7.78,52.76,82.85,78.84,71.79-13c-11.09-92-48.78-65.39-59.58-104.2-12.54-45.11-18.22-106-64.1-77.44l-18.17,10.38Z" transform="translate(-206.31 -68.71)"/><path class="cls-9" d="M1553.25,630.67s-18.16-22.49-6-26.81,38.06,5.19,24.22,18.16S1553.25,630.67,1553.25,630.67Z" transform="translate(-206.31 -68.71)"/><path class="cls-13" d="M1545.9,619.88s14.25,6,21.2,5.3c0,0,5.63,8.61-5,7.28s-23.52-4.3-21.87-8S1542.26,618.55,1545.9,619.88Z" transform="translate(-206.31 -68.71)"/><path class="cls-3" d="M1387.1,710.3c-2.6,0,3.3,20,5.91,22.6s12.83,5.06,16,6.1,6.55,7,6.55,7l8-7.88-4.33-7.51s2.85-8,.77-11.62-5.79-15.42-8.74-12.58c-1.92,1.85,1.8,10.53,1.8,10.53s.62,8.47-1.47,7.43S1387.1,710.3,1387.1,710.3Z" transform="translate(-206.31 -68.71)"/><path class="cls-4" d="M1411.05,746.3s11.47-13.32,14.86-12.39,54.47,65,61.77,63.48c0,0,52.65-57.34,56.82-56.3s27.63,44.83,24,48-86.53,48-99.57,39.1S1411.05,746.3,1411.05,746.3Z" transform="translate(-206.31 -68.71)"/></svg>