<?xml version="1.0" encoding="UTF-8"?>
<svg width="565px" height="330px" viewBox="0 0 565 330" version="1.1" xmlns="http://www.w3.org/2000/svg" xmlns:xlink="http://www.w3.org/1999/xlink">
    <!-- Generator: Sketch 61.2 (89653) - https://sketch.com -->
    <title>Group</title>
    <desc>Created with Sketch.</desc>
    <g id="Members" stroke="none" stroke-width="1" fill="none" fill-rule="evenodd">
        <g id="Desktop" transform="translate(-329.000000, -231.000000)">
            <g id="Group" transform="translate(281.023438, 149.664063)">
                <path d="M322.857958,79.8347688 C391.190975,102.589228 402.84206,164.59677 386.337986,204.994359 C378.601283,223.931753 396.047304,271.663859 367.423642,291.306485 C338.799979,310.94911 324.832536,285.944828 280.046118,283.629331 C242.679542,281.697447 249.494647,390.142543 146.532629,381.510632 C118.451279,379.156407 49.7109107,316.003016 62.5903829,247.837066 C72.970888,192.897161 161.754025,131.526671 172.231415,120.537691 C203.30388,87.9480206 254.524941,57.0803092 322.857958,79.8347688 Z" id="Path-3" fill="#F6FCFD" transform="translate(227.000000, 227.000000) scale(1, -1) rotate(45.000000) translate(-227.000000, -227.000000) "></path>
                <path d="M270.976562,411.335938 C332.203125,271.335938 389.203125,201.335938 441.976562,201.335938 C494.75,201.335938 551.75,271.335938 612.976562,411.335938 L270.976562,411.335938 Z" id="Path-26" fill="#2CAF61"></path>
                <path d="M94.4794106,411.042568 C164.537765,323.042568 218.374235,279.042568 255.988821,279.042568 C293.603407,279.042568 347.439877,323.042568 417.498231,411.042568 L94.4794106,411.042568 Z" id="Path-26" fill="#6CCD96"></path>
                <path d="M483.30933,112.171251 L500.976562,171.335938 L500.976562,171.335938 L457.976562,171.335938 L475.643795,112.171251 C476.275889,110.054472 478.504291,108.850897 480.621069,109.48299 C481.912945,109.868759 482.923561,110.879375 483.30933,112.171251 Z" id="Triangle" fill="#F67C83" transform="translate(479.476562, 135.335938) rotate(90.000000) translate(-479.476562, -135.335938) "></path>
                <rect id="Rectangle" fill="#F0D8AE" x="439.976562" y="111.335938" width="5" height="94" rx="2.5"></rect>
            </g>
        </g>
    </g>
</svg>