<?xml version="1.0" encoding="UTF-8"?>
<svg width="594px" height="299px" viewBox="0 0 594 299" version="1.1" xmlns="http://www.w3.org/2000/svg" xmlns:xlink="http://www.w3.org/1999/xlink">
    <!-- Generator: Sketch 61.2 (89653) - https://sketch.com -->
    <title>Group 8</title>
    <desc>Created with Sketch.</desc>
    <defs>
        <filter x="-9.2%" y="-9.9%" width="118.4%" height="119.8%" filterUnits="objectBoundingBox" id="filter-1">
            <feOffset dx="0" dy="0" in="SourceAlpha" result="shadowOffsetOuter1"></feOffset>
            <feGaussianBlur stdDeviation="2.5" in="shadowOffsetOuter1" result="shadowBlurOuter1"></feGaussianBlur>
            <feColorMatrix values="0 0 0 0 0.607892215   0 0 0 0 0.607803345   0 0 0 0 0.607922554  0 0 0 0.65 0" type="matrix" in="shadowBlurOuter1" result="shadowMatrixOuter1"></feColorMatrix>
            <feMerge>
                <feMergeNode in="shadowMatrixOuter1"></feMergeNode>
                <feMergeNode in="SourceGraphic"></feMergeNode>
            </feMerge>
        </filter>
    </defs>
    <g id="Members" stroke="none" stroke-width="1" fill="none" fill-rule="evenodd">
        <g id="Team" transform="translate(-386.000000, -131.000000)">
            <g id="Group-8" transform="translate(386.531250, 131.000000)">
                <path d="M85.4923329,97.474857 C85.4923329,124.42017 94.338224,152.306919 114.816552,157.486576 C135.294879,162.666232 159.08749,129.079575 161.441552,103.948912 C163.795613,78.8182485 144.632958,49.8772008 124.89663,49.8772008 C105.160302,49.8772008 85.4923329,70.5295445 85.4923329,97.474857 Z" id="Path-12" fill="#E7ECFE"></path>
                <path d="M322.46875,86.0783658 C322.46875,109.037753 328.900205,127.992731 335.220703,130.405809 C344.96783,134.127125 349.797257,132.26929 353.724149,130.405809 C355.850671,129.396681 365.602226,177.563707 367.636506,175.921845 C368.311018,175.377449 396.782261,173.447873 396.466137,163.741521 C396.080422,151.898444 380.633998,121.352881 381.410294,120.537066 C390.393022,111.097061 383.58373,107.165792 384.714545,95.0359636 C386.710809,73.6227911 370.460719,48.9628906 353.724149,48.9628906 C336.987579,48.9628906 322.46875,63.1189785 322.46875,86.0783658 Z" id="Path-12" fill="#E7ECFE"></path>
                <path d="M323.988281,75.9033203 C320.328776,71.405234 318.499023,65.2719231 318.499023,57.5033877 C318.499023,45.8505847 326.411655,33.2285156 345.689453,33.2285156 C358.541319,33.2285156 373.088918,41.3201397 389.332251,57.5033877 C395.071844,53.3448323 400.079747,53.3448323 404.355959,57.5033877 C408.632172,61.6619431 410.770278,68.4190426 410.770278,77.7746862 C434.634552,69.975416 450.275468,72.7432945 457.693027,86.0783217 C468.819364,106.080862 468.819364,120.429188 460.769112,129.926952 C452.71886,139.424717 450.749436,137.998711 450.749436,147.220349 C450.749436,156.441987 461.885728,167.287591 450.749436,179.260581 C443.325241,187.242574 423.629886,177.541858 391.663373,150.158435 C382.342204,121.135921 377.681619,105.834428 377.681619,104.253956 C381.487735,100.343697 385.484656,89.2584126 381.487735,83.8217345 C378.023844,79.1100912 372.66215,89.2584126 372.327504,86.0783217 C370.421794,67.9686362 358.462282,61.1074219 354.46875,61.1074219 C349.86383,61.1074219 337.18457,60.9179687 334.038086,62.7460937 C330.180013,64.6972656 326.830078,69.0830078 323.988281,75.9033203 Z" id="Path-16" fill="#1A2955"></path>
                <path d="M360.696565,152.366401 C364.305769,155.997317 369.129108,157.207622 375.166583,155.997317 C381.204058,154.787012 386.198771,151.10887 390.150724,144.962891 C411.27903,151.285807 425.562122,156.82487 433,161.580078 C440.437878,166.335286 456.594128,181.94966 481.46875,208.423199 C501.302756,248.293403 506.302756,270.757154 496.46875,275.814453 C486.634744,280.871752 456.827453,279.262377 407.046875,270.986328 C376.070669,249.849751 358.211294,233.854308 353.46875,223 C348.726206,212.145692 351.135477,188.601159 360.696565,152.366401 Z" id="Path-17" fill="#F67C83"></path>
                <path d="M359.46875,147.609375 C334.917969,153.066406 321.894531,156.960612 320.398437,159.291992 C318.902344,161.623372 314.702148,170.700846 307.797852,186.524414 L382.724609,189.192249 L359.46875,147.609375 Z" id="Path-19" fill="#F67C83"></path>
                <path d="M426.46875,212 C438.132399,220.169193 446.637608,226.630131 451.984375,231.382812 C457.331142,236.135494 460.825934,240.341224 462.46875,244" id="Line" stroke="#E55C69" stroke-width="3" stroke-linecap="round"></path>
                <g id="website" transform="translate(254.468750, 170.000000)">
                    <g id="Group-2" filter="url(#filter-1)">
                        <rect id="Rectangle" fill="#2A9DEB" x="0" y="0" width="114" height="106" rx="5"></rect>
                        <rect id="Rectangle" fill="#FFFFFF" x="0" y="15" width="114" height="85"></rect>
                    </g>
                    <g id="Group-3" transform="translate(10.000000, 5.000000)">
                        <circle id="Oval" fill="#F67C83" cx="3" cy="3" r="3"></circle>
                        <circle id="Oval" fill="#FFD66F" cx="12" cy="3" r="3"></circle>
                        <circle id="Oval" fill="#6CCD96" cx="22" cy="3" r="3"></circle>
                    </g>
                    <circle id="Oval" fill="#E2E8FE" cx="22.5" cy="41.5" r="12.5"></circle>
                    <circle id="Oval" fill="#E2E8FE" cx="22.5" cy="74.5" r="12.5"></circle>
                    <rect id="Rectangle" fill="#F2F2FA" x="39" y="34" width="60" height="6" rx="3"></rect>
                    <rect id="Rectangle" fill="#F2F2FA" x="39" y="45" width="33" height="6" rx="3"></rect>
                    <rect id="Rectangle" fill="#F2F2FA" x="39" y="66" width="60" height="6" rx="3"></rect>
                    <rect id="Rectangle" fill="#F2F2FA" x="39" y="77" width="33" height="6" rx="3"></rect>
                </g>
                <path d="M215.119141,210 C214.783264,199.217152 214.783264,191.390655 215.119141,186.520508 C215.490306,181.138686 218.842148,173.325341 219.799805,170 C221.40176,164.437411 222.387567,159.486181 222.704102,157.97168 C223.848023,152.498446 229.960937,159.625977 229.960937,162.580078 C229.960937,164.549479 229.261719,168.689453 227.863281,175 C240.480469,171.229167 246.789062,174.5625 246.789062,185 C246.789062,191.095797 249.548643,195.699844 246.789062,202.03125 C245.47873,205.037593 241.776582,206.348142 235.682617,205.962896 L240.277344,221 L215.119141,210 Z" id="Path-20" fill="#E2E8FE"></path>
                <rect id="table-top" fill="#F2F2F2" x="15.46875" y="267" width="578" height="25" rx="5"></rect>
                <path d="M91.9101562,137 L79.8164063,150.757813 C50.6263021,157.928385 31.84375,167.009115 23.46875,178 C11.8709738,197.330904 4.12271141,234.259585 0.223962732,288.786044 C0.105799421,290.438677 1.34973052,291.874194 3.0023638,291.99236 C3.07357,291.997452 3.14493523,292 3.21632322,292 L172.449219,292 L172.449219,292 C176.933594,296.629557 182.382812,298.944336 188.796875,298.944336 C206.146484,298.944336 209.342773,299.263672 215.162109,292 C220.981445,284.736328 245.443359,231.289604 245.443359,221 C245.443359,217.530176 214.054687,205.962891 211.234375,210 C205.973816,217.530176 199.932323,233.218267 198.648437,227.5 C198.051289,224.840373 186.296875,167.482422 172.167969,162.958984 C162.748698,159.943359 151.552083,154.437826 138.578125,146.442383 L91.9101562,137 Z" id="Path-13" fill="#24A2B7"></path>
                <g id="Group" transform="translate(12.167969, 197.000000)">
                    <path d="M19.4763455,4.55411572 C32.9072398,-1.27946036 125.662391,-1.75202143 142.814486,4.55411572 C149.191943,6.89885113 154.920448,37.0474792 160,95 L0,95 C4.59206865,38.3477962 11.0841838,8.19916812 19.4763455,4.55411572 Z" id="Path-14" fill="#FFD66F"></path>
                    <path d="M31.2319665,26.4149084 C39.6212027,27.4716361 51.7714196,28 67.6826172,28 C84.5598799,28 101.437143,27.405528 118.314405,26.216584 C119.851634,26.1083118 121.185591,27.2666924 121.293883,28.8039195 C121.29848,28.8691786 121.300781,28.9345792 121.300781,29 C121.300781,30.6855813 119.986127,32.0786241 118.303369,32.1761369 C97.3210418,33.3920456 80.5249319,34 67.9150391,34 C55.7097548,34 43.5044706,33.4304341 31.2991863,32.2913022 C29.599957,32.1326911 28.3007813,30.7066159 28.3007813,29 C28.3007813,27.5609883 29.4673307,26.3944389 30.9063424,26.3944389 C31.0152057,26.3944389 31.123962,26.4012615 31.2319665,26.4149084 Z" id="Rectangle" fill="#24A2B7"></path>
                    <path d="M31.2319665,51.4149084 C39.6212027,52.4716361 51.7714196,53 67.6826172,53 C84.5598799,53 101.437143,52.405528 118.314405,51.216584 C119.851634,51.1083118 121.185591,52.2666924 121.293883,53.8039195 C121.29848,53.8691786 121.300781,53.9345792 121.300781,54 C121.300781,55.6855813 119.986127,57.0786241 118.303369,57.1761369 C97.3210418,58.3920456 80.5249319,59 67.9150391,59 C55.7097548,59 43.5044706,58.4304341 31.2991863,57.2913022 C29.599957,57.1326911 28.3007813,55.7066159 28.3007813,54 C28.3007813,52.5609883 29.4673307,51.3944389 30.9063424,51.3944389 C31.0152057,51.3944389 31.123962,51.4012615 31.2319665,51.4149084 Z" id="Rectangle" fill="#24A2B7"></path>
                </g>
                <g id="Group-4" transform="translate(40.468750, 0.000000)">
                    <rect id="Rectangle" fill="#E8F5F8" x="0" y="32" width="26" height="26"></rect>
                    <g id="Group-5" transform="translate(0.000000, 64.000000)">
                        <path d="M26,17.1420898 L17.3427734,26 L0,26 L0,0 L26,0 L26,17.1420898 Z" id="Combined-Shape" fill="#E8F5F8"></path>
                        <polygon id="Path-24" fill="#D5E6EA" points="17.3427734 26 26 17.1420898 17.3427734 17.1420898"></polygon>
                    </g>
                    <g id="Group-5" transform="translate(453.000000, 40.000000)">
                        <path d="M26,17.1420898 L17.3427734,26 L0,26 L0,0 L26,0 L26,17.1420898 Z" id="Combined-Shape" fill="#E8F5F8"></path>
                        <polygon id="Path-24" fill="#D5E6EA" points="17.3427734 26 26 17.1420898 17.3427734 17.1420898"></polygon>
                    </g>
                    <rect id="Rectangle" fill="#E8F5F8" x="36" y="45" width="26" height="26"></rect>
                    <rect id="Rectangle" fill="#E8F5F8" x="453" y="75" width="26" height="26"></rect>
                    <rect id="Rectangle" fill="#E8F5F8" x="70" y="32" width="26" height="26"></rect>
                    <rect id="Rectangle" fill="#E8F5F8" x="70" y="0" width="26" height="26"></rect>
                    <rect id="Rectangle" fill="#E8F5F8" x="161" y="79" width="26" height="26"></rect>
                    <g id="Group-5" transform="translate(197.000000, 99.000000)">
                        <path d="M26,17.1420898 L17.3427734,26 L0,26 L0,0 L26,0 L26,17.1420898 Z" id="Combined-Shape" fill="#E8F5F8"></path>
                        <polygon id="Path-24" fill="#D5E6EA" points="17.3427734 26 26 17.1420898 17.3427734 17.1420898"></polygon>
                    </g>
                </g>
                <path d="M140.313134,97.2067906 C136.29236,92.0759824 133.134645,91.0507546 130.839989,94.131107 C127.398005,98.7516357 128.029027,105.432798 129.100243,112.461185 C129.814387,117.146777 133.022883,117.83623 138.725731,114.529545 C136.230504,130.295564 132.596341,140.398346 127.823242,144.837891 C123.840389,148.542414 98.0810547,144.837891 89.7062,135.061771 C84.9668745,129.529471 79.6329579,95.6457555 80.5670399,85.509525 C81.5011219,75.3732945 85.3270934,63.122985 93.9775391,54.9794922 C99.3974609,49.8772008 114.199219,47.2851562 120.777344,47.2851562 C142.065621,47.2851563 154.984841,41.0359181 161.638286,44.4492187 C170.831646,49.1655273 163.895968,75.0522508 161.638286,85.509525 C160.133165,92.4810411 153.024781,96.3801296 140.313134,97.2067906 Z" id="Path-15" fill="#1A2955"></path>
                <path d="M479.556857,205.962891 C462.857978,227.359882 447.518226,239.922988 433.537601,243.652206 C419.095594,247.504495 383.831055,252.922852 380.107422,251.365234 C373.696953,248.683698 364.097604,245.948421 361.014648,246.887695 C351.112188,249.904648 346.121094,260.999561 346.121094,267 C346.121094,273.000439 438.978516,270.021484 451.121094,267 C463.263672,263.978516 493.204102,248.385737 496.46875,237.960932 C497.735026,233.733068 492.097728,223.067054 479.556857,205.962891 Z" id="Path-18" fill="#E7ECFE"></path>
                <path d="M361.922363,154.587402 C367.116153,155.902428 371.530893,156.372399 375.166583,155.997317 C381.192897,155.247153 386.422526,151.848958 390.855469,145.802734" id="Path-21" stroke="#E55C69" stroke-width="3" stroke-linecap="round" stroke-linejoin="round"></path>
                <ellipse id="Oval" fill="#FFFFFF" cx="527.46875" cy="275.5" rx="34" ry="9.5"></ellipse>
                <g id="Group-6" transform="translate(478.468750, 257.000000)">
                    <path d="M28,6.62268961 C28.9315162,2.2075632 30.4284261,0 32.4907295,0 C35.5841847,0 75.1452362,2.22371871 77.3486328,3.54589844 C78.8175639,4.42735159 79.2120966,6.57871878 78.5322308,10 L28,6.62268961 Z" id="Path-23" fill="#EBBE8A"></path>
                    <path d="M3.42453085,31 C8.06310791,31 21.0493822,24.0876519 31.5998943,22.0606248 C39.6611513,20.5118483 59.8180519,18.7245284 74.3104631,15.3035497 C76.4238042,14.804689 77.8310602,13.0368391 78.5322308,10 L27.9503622,6 C18.4779425,9.90568796 12.2879492,13.0068712 9.38038226,15.3035497 C-1.19869447,23.6599312 -2.29717089,31 3.42453085,31 Z" id="Path-22" fill="#FFD66F"></path>
                    <path d="M9.5,22 C13.0898509,22 16,20.6568542 16,19 C16,17.3431458 13.0898509,16 9.5,16 C9.16281245,16 8.83486811,16.0346965 8.5082756,16.0346965 C8.17419836,16.0346965 3.57385254,20.1616211 3.89670958,20.5214369 C4.75504259,21.478027 7.11330504,22 9.5,22 Z" id="Oval" fill="#F67C83" opacity="0.781970796"></path>
                    <path d="M59.5651081,18.0811446 C60.1542468,17.8274271 60,17.381162 60,17 C60,15.3431458 57.0898509,14 53.5,14 C49.9101491,14 47,15.3431458 47,17 C47,18.0431829 48.0467431,19.0319513 49.9041988,19.4995325 C50.3626099,19.6149292 59.2078857,18.2349854 59.5651081,18.0811446 Z" id="Oval" fill="#F67C83" opacity="0.781970796"></path>
                    <ellipse id="Oval" fill="#F67C83" opacity="0.781970796" cx="31" cy="11.5" rx="6" ry="2.5"></ellipse>
                </g>
                <g id="Group-7" transform="translate(434.468750, 184.000000)">
                    <path d="M5.35488559,49 L30.5518971,49 C32.7610361,49 34.5518971,50.790861 34.5518971,53 C34.5518971,53.1413456 34.5444051,53.2825918 34.5294527,53.4231442 L30.3805166,92.4231442 C30.1641481,94.4570081 28.4483014,96 26.4029609,96 L8.67403452,96 C6.59638409,96 4.8646269,94.4093661 4.6884425,92.3391993 L1.36929356,53.3391993 C1.18195895,51.1380176 2.81450457,49.2017426 5.01568627,49.014408 C5.12849785,49.004807 5.24166619,49 5.35488559,49 Z" id="Rectangle" fill="#FFFFFF"></path>
                    <rect id="Rectangle" fill="#FFFFFF" x="0" y="48" width="36" height="6"></rect>
                    <path d="M3.87524343,43.8827973 L31.8752434,42.1327973 C32.9776619,42.0638961 33.927204,42.9017274 33.9961052,44.0041459 C33.9987011,44.0456807 34,44.0872865 34,44.1289024 L34,48 C34,48.5522847 33.5522847,49 33,49 L3,49 C2.44771525,49 2,48.5522847 2,48 L2,45.8789024 C2,44.8227759 2.82117359,43.9486767 3.87524343,43.8827973 Z" id="Rectangle" fill="#FFFFFF"></path>
                    <polygon id="Path-25" fill="#6CCD96" points="1.58129883 63.2514648 34 63.2514648 32.310791 80.8041992 3.05126953 80.8041992"></polygon>
                    <line x1="0.5" y1="53.5" x2="35.5" y2="53.5" id="Line-2" stroke="#F2F2F2" stroke-linecap="square"></line>
                    <line x1="0.5" y1="48.5" x2="35.5" y2="48.5" id="Line-2" stroke="#F2F2F2" stroke-linecap="square"></line>
                </g>
            </g>
        </g>
    </g>
</svg>