<svg xmlns="http://www.w3.org/2000/svg" viewBox="0 0 321.01 125.67"><defs><style>.cls-1{fill:#12274b;}.cls-2{fill:#209cee;}</style></defs><title>labs-full-logo</title><g id="Layer_2" data-name="Layer 2"><g id="Layer_1-2" data-name="Layer 1"><path class="cls-1" d="M177.37,6.11q5,4.4,5,12.08t-5,12q-5,4.36-13.56,4.36H152.05V54.51h-8.56V1.71h20.32Q172.37,1.71,177.37,6.11ZM170.77,25q2.72-2.28,2.72-6.84,0-9.2-11-9.2h-10.4V27.31h10.4Q168.05,27.31,170.77,25Z"/><path class="cls-1" d="M226,37.71H196.69q.72,5.28,3.76,8a11.21,11.21,0,0,0,7.84,2.76,13.63,13.63,0,0,0,6.52-1.4,7.32,7.32,0,0,0,3.56-4l7.12,3q-4.48,9.28-17.2,9.28-9.44,0-14.76-5.52t-5.32-15.28q0-9.84,5.12-15.32t14.4-5.48q8.8,0,13.68,5.36t4.88,14.24A29,29,0,0,1,226,37.71ZM200.25,23.23q-2.84,2.72-3.56,7.92h21.6a13.18,13.18,0,0,0-3.4-7.84,9.62,9.62,0,0,0-7.16-2.8A10.37,10.37,0,0,0,200.25,23.23Z"/><path class="cls-1" d="M268.33,17.55q4.2,3.84,4.2,11V54.51H264V31.31q0-10.56-8.56-10.56a10.68,10.68,0,0,0-7.68,3.08q-3.2,3.08-3.2,9.48v21.2H236v-40h7.6l.4,6.64a13,13,0,0,1,5.52-5.6,17,17,0,0,1,8-1.84A15.44,15.44,0,0,1,268.33,17.55Z"/><path class="cls-1" d="M316.81,17.55q4.2,3.84,4.2,11V54.51h-8.56V31.31q0-10.56-8.56-10.56a10.68,10.68,0,0,0-7.68,3.08q-3.2,3.08-3.2,9.48v21.2h-8.56v-40h7.6l.4,6.64a13,13,0,0,1,5.52-5.6,17,17,0,0,1,8-1.84A15.44,15.44,0,0,1,316.81,17.55Z"/><path class="cls-1" d="M181.52,117.51v7.36H143.84V72.07h8.56v45.44Z"/><path class="cls-1" d="M228.08,118.95l-.56,5.76a12.1,12.1,0,0,1-5,1,9.75,9.75,0,0,1-5.48-1.36,6.76,6.76,0,0,1-2.68-4.56,12,12,0,0,1-5.44,4.36,20.12,20.12,0,0,1-8.08,1.56,15.25,15.25,0,0,1-9.44-2.72,9.15,9.15,0,0,1-3.6-7.76,10,10,0,0,1,3.92-8q3.92-3.24,11.68-4.6l10.16-1.76V98.71a7.76,7.76,0,0,0-2.16-5.8,8.21,8.21,0,0,0-6-2.12q-7.92,0-10.32,7.2l-6.64-3.52a13.29,13.29,0,0,1,5.88-7.6,20.08,20.08,0,0,1,10.92-2.8q7.76,0,12.32,3.6t4.56,10.56v18.08a3.17,3.17,0,0,0,.68,2.24,3,3,0,0,0,2.28.72A11.65,11.65,0,0,0,228.08,118.95Zm-17.76-1.84a6.3,6.3,0,0,0,3.28-5.52v-4.8l-8.72,1.76a15.92,15.92,0,0,0-6.16,2.24,4.5,4.5,0,0,0-2,3.84,4,4,0,0,0,1.56,3.4,7.33,7.33,0,0,0,4.44,1.16A13.88,13.88,0,0,0,210.32,117.11Z"/><path class="cls-1" d="M270.64,89.63q4.72,5.56,4.72,15.32t-4.72,15.24q-4.72,5.48-13,5.48a15.21,15.21,0,0,1-8.28-2.24,13.93,13.93,0,0,1-5.32-6l-.4,7.44h-7.52v-58h8.56v24.4A13.29,13.29,0,0,1,250,86a15.42,15.42,0,0,1,7.72-1.92Q265.92,84.07,270.64,89.63Zm-6.76,25.48q2.92-3.68,2.92-10.24t-2.92-10.2A10.9,10.9,0,0,0,248,94.31q-2.92,3.28-3.24,9v3q.32,5.84,3.24,9.12a9.92,9.92,0,0,0,7.8,3.28A9.79,9.79,0,0,0,263.88,115.11Z"/><path class="cls-1" d="M290.2,123.59a14.78,14.78,0,0,1-7.08-6.32l5.76-5a9.9,9.9,0,0,0,4.72,5,17,17,0,0,0,7.68,1.6,12.53,12.53,0,0,0,6.32-1.32,4,4,0,0,0,2.24-3.48,3.47,3.47,0,0,0-2.08-3.08,27.42,27.42,0,0,0-7.2-2.2q-8.88-1.68-12.48-4.48a9.45,9.45,0,0,1-3.6-7.92,10.42,10.42,0,0,1,2-6.12,13.89,13.89,0,0,1,5.8-4.56,21.68,21.68,0,0,1,9-1.72q6.64,0,10.64,2.2a14.49,14.49,0,0,1,6.16,6.84L312,97.59a10.6,10.6,0,0,0-4-5.16,12.19,12.19,0,0,0-6.6-1.64,11,11,0,0,0-6,1.48Q293,93.75,293,95.67a3.88,3.88,0,0,0,2.12,3.44q2.12,1.28,7.72,2.32,8.48,1.52,12,4.32a9.45,9.45,0,0,1,3.52,7.84,10.31,10.31,0,0,1-4.64,8.72q-4.64,3.36-12.8,3.36A26.26,26.26,0,0,1,290.2,123.59Z"/><path class="cls-1" d="M30.42,112.35q3.13,2,10,2L39,124.73q-12.91,0-18.5-4.46t-5.59-13.91V81.73q0-7.45-3.39-10.65T0,67.89V57q8.12,0,11.51-3.19t3.39-10.65V18.37q0-9.45,5.59-13.91T39,0l1.46,10.38q-6.92,0-10,2a6.89,6.89,0,0,0-3.13,6.26V45.13q0,13.58-14.78,17.31Q27.29,65.89,27.29,79.6v26.49A6.89,6.89,0,0,0,30.42,112.35Z"/><path class="cls-1" d="M110.91,53.78Q114.3,57,122.42,57V67.89q-8.12,0-11.51,3.19t-3.39,10.65v24.63q0,9.45-5.59,13.91t-18.5,4.46L82,114.35q6.92,0,10-1.93T95,106.09V79.6q0-13.71,14.78-17.17Q95,58.71,95,45.13V18.64a6.93,6.93,0,0,0-3.06-6.26q-3.06-2-10-2L83.42,0q12.91,0,18.5,4.46t5.59,13.91V43.13Q107.52,50.59,110.91,53.78Z"/><circle class="cls-2" cx="71.67" cy="33.69" r="5.79"/><circle class="cls-2" cx="61.08" cy="10.29" r="5.79"/><circle class="cls-2" cx="50.53" cy="48.7" r="5.79"/><path class="cls-2" d="M77.26,63H45a7.47,7.47,0,0,0-7.47,7.47V99.37A7.47,7.47,0,0,0,45,106.84H77.26a7.47,7.47,0,0,0,7.47-7.47V70.51A7.47,7.47,0,0,0,77.26,63ZM71,82.34a5.79,5.79,0,1,1,5.93-5.64A5.79,5.79,0,0,1,71,82.34Z"/></g></g></svg>